<svg xmlns="http://www.w3.org/2000/svg" viewBox="0 0 35.89 36.9"><defs><style>.cls-1{fill:#fff;}</style></defs><g id="Layer_2" data-name="Layer 2"><g id="Layer_1-2" data-name="Layer 1"><g id="v1w7QK.tif"><path class="cls-1" d="M14.05,0h7.78a1.22,1.22,0,0,1,.77,1.07c.18,1.43.4,2.85.59,4.28a.54.54,0,0,0,.33.45c.87.48,1.73,1,2.57,1.5a.58.58,0,0,0,.59.06c1.33-.55,2.67-1.08,4-1.62.78-.31,1.12-.2,1.54.53l3.4,5.89c.43.74.36,1.1-.33,1.63q-1.7,1.34-3.4,2.66a.53.53,0,0,0-.22.51c0,1,0,2,0,2.95a.58.58,0,0,0,.22.54c1.14.87,2.26,1.76,3.38,2.64.7.55.77.9.33,1.66l-3.39,5.89a1,1,0,0,1-1.52.53c-1.36-.55-2.72-1.09-4.07-1.65a.51.51,0,0,0-.49,0c-.88.54-1.78,1-2.66,1.57a.61.61,0,0,0-.26.37c-.23,1.48-.44,3-.65,4.45a1,1,0,0,1-1,.94H14.38a.94.94,0,0,1-1.06-.9c-.21-1.48-.43-3-.63-4.45a.5.5,0,0,0-.3-.43c-.88-.49-1.75-1-2.61-1.52a.55.55,0,0,0-.55-.06c-1.38.57-2.75,1.12-4.13,1.67a1,1,0,0,1-1.37-.46l-.47-.81L0,24.21v-.43a5.4,5.4,0,0,1,.64-.71c1.11-.89,2.23-1.76,3.36-2.64A.49.49,0,0,0,4.2,20c0-1,0-2,0-3a.5.5,0,0,0-.2-.48C2.88,15.6,1.77,14.73.67,13.84A5.71,5.71,0,0,1,0,13.12v-.51l.23-.39,3.45-6a1,1,0,0,1,1.5-.51c1.36.54,2.71,1.08,4.06,1.64a.53.53,0,0,0,.53,0c.86-.53,1.75-1,2.62-1.55a.64.64,0,0,0,.28-.39Q13,3.21,13.3,1A1.14,1.14,0,0,1,14.05,0Zm3.88,12a6.46,6.46,0,1,0,6.46,6.46A6.48,6.48,0,0,0,17.93,12Z"/></g></g></g></svg>