<svg xmlns="http://www.w3.org/2000/svg" viewBox="0 0 331.31 295.77"><defs><style>.cls-1{fill:#fff;}</style></defs><g id="Layer_2" data-name="Layer 2"><g id="Layer_1-2" data-name="Layer 1"><g id="_5NYx6S.tif" data-name="5NYx6S.tif"><path class="cls-1" d="M269.76,79.39c20.61,35.71,40.83,70.73,61.55,106.61-11.56,0-22.17.41-32.72-.16-5.92-.32-7.94,1.81-9.88,7.24-20.86,58.31-61.79,93.2-123.35,101.43C95,303.92,27.7,259.61,6.63,191.62c-21.64-69.84,11.15-145,77.18-177C137.1-11.15,202.68-2.31,245.41,36.73l-23.07,40C199.1,53.87,171.64,43,139.5,45.42A97.79,97.79,0,0,0,81.58,69.56c-34.91,30.38-46,78.51-27.92,119.12,18.51,41.65,60.07,65.62,103,61.52,39.82-3.81,80.4-34.67,85.95-64.14h-34.5C228.85,150.21,249.12,115.11,269.76,79.39Z"/></g></g></g></svg>