<svg xmlns="http://www.w3.org/2000/svg" viewBox="0 0 1218.32 501.41">
    <defs>
        <style>
            .cls-1 {fill:#f212d7;}
            .mask {fill: none; stroke: #fff; stroke-miterlimit: 10; stroke-linecap: round; stroke-width:80px;}
            #mask-omms .mask {stroke-width:50px;}
        </style>
    </defs>

    <g id="paths">

        <!-- C-letter -->
        <path mask="url(#mask-c)" class="cls-1" d="M308.76,62.62l-1.1,3.16a26.07,26.07,0,0,0,3-.3c3.12-.74,6.25-1.49,9.35-2.34,6.9-1.87,13.37-.13,19.59,2.6,8.51,3.75,15.8,9.36,22.46,15.8.83.8,1.36,1.91,2.17,2.74,5.9,6,4.79,12.62,1.76,19.41a7.33,7.33,0,0,1-1.34,2.24c-3.82,3.9-7.37,8.07-12.29,10.77C340.27,123.36,328.14,130,316.25,137a161.36,161.36,0,0,0-15.68,11.19q-29.42,22.5-58.7,45.18a523.93,523.93,0,0,0-52,46.62c-12.13,12.35-24.25,24.72-35.92,37.5a492.17,492.17,0,0,0-49.11,62.75c-10.56,16.19-19.9,33-26.82,51.1A141.64,141.64,0,0,0,69.52,422C68,433,74.77,439.79,84.36,441.8c11.15,2.34,22.41.92,33.59-.09,2-.18,3.82-1.4,5.74-2.08A104.52,104.52,0,0,1,134.41,436a12.36,12.36,0,0,1,5.9.56c2.5.71,3.69.6,5.47-1.45.09-.11.19-.32.28-.31,2.9.2,5-2.09,7.64-2.51,2.14-.34,4.19-.06,5-3.05.6-2.3,5-4,7.56-3.06,2.45.86,3.56-.21,4.51-2.07,1.51-3,2.72-3.41,5.74-2.09a17,17,0,0,0,2.66,1,2.53,2.53,0,0,0,3.35-1.66c.55-1.61,1.35-1.84,2.79-1.05,3.1,1.71,4.88.83,5.65-2.68.06-.3.34-.76.57-.79,1.93-.25,2.51-1.79,3.13-3.24s1.65-1.77,3.16-1.28a8.71,8.71,0,0,0,4,.69c2.64-.54,3.81-2.78,4.8-5.1a7,7,0,0,1,1.82-3c.73-.51,3.08-.46,6.36.13a15.35,15.35,0,0,0-1.54-5.16,9.94,9.94,0,0,1,6.53.15,5.53,5.53,0,0,0,3.42.17c.5-.2.64-1.88.56-2.86-.27-3.22,3.69-6.46,7-5.63a24.58,24.58,0,0,0,5.5,1.14c4.07.08,4.28-.34,3.14-3.41.87-1.46,1.64-2.6,2.26-3.82a3,3,0,0,1,3.88-1.39,16,16,0,0,0,1.77.86c3,.91,3.95.12,4.06-3a29.4,29.4,0,0,1,1-4.75c1.54.68,2.45,2.86,3.22,3.4.89.78,2.1,1.76,3,.53.56-.79.31-2.28.13-3.4-.09-.52-1.06-.86-1.27-1.42a4.65,4.65,0,0,1,.08-1.88c.56.08,1.29,0,1.66.28a66.44,66.44,0,0,0,5.24,4.59,4,4,0,0,0,3.44,0,3.28,3.28,0,0,0,1.24-2.85c-.86-3.27.51-4.93,3.6-5.87,1.11-.39,3.48.68,4.06,0,.88-1.05-.93-3.59-1.73-4.25-3.14-2.62-3.28-5.43-.15-8a4.21,4.21,0,0,1,2.58-.75c1.79,0,2.71-.63,3-2.43a9.36,9.36,0,0,1,1.07-3.07c1.67-3,4.79-3.19,6.9-.47a5.46,5.46,0,0,0,3.69,2.49c.46-1,.73-2.66.25-3.15-2-2-.7-3.31,1-5.18a18,18,0,0,1,1.65,2.9c.85,2.5,2.92,3.3,5.09,1.86a2.85,2.85,0,0,1,.93-.57,17.41,17.41,0,0,1,2.05-.27c0,.68.31,1.51,0,2-.89,1.62-1.64,3.77-3.07,4.56a29.71,29.71,0,0,0-11.72,12.09c-3.26,5.85-8.36,10.1-12.65,15.05-10,11.59-43,35.44-73.65,56.17a519.08,519.08,0,0,1-64.93,31.17c-5.89,2.37-16.4,5.82-22.35,8-14.84,4.49-42.08,6-61-4.72-7.39-5.1-15.12-9.8-22-15.46-9.06-7.42-15.14-17.26-20.24-27.75-5.73-11.76-5.1-23.7-1.61-35.83,4.77-16.58,10.54-32.78,18.3-48.24a235.46,235.46,0,0,1,25.86-40c11.84-15,23.12-30.5,35-45.51,5.42-6.85,11.71-13,17.55-19.54s11.74-13.4,17.7-20c2.73-3,5.71-5.85,8.51-8.83,9.1-9.69,18.08-19.48,27.26-29.1,12.42-13,26-24.78,39.86-36.26,11-9.09,22.13-18,32.94-27.22,5.3-4.55,9.84-10,15-14.73,12.87-11.79,25.67-23.7,40.25-33.44,5.9-4,11.95-7.64,18.95-9.37C307.49,62.75,308,62.72,308.76,62.62Z"/>
    
        <!-- OMMS -->
        <path mask="url(#mask-omms)" class="cls-1" d="M709.75,131.39a13.44,13.44,0,0,0-1.54,1.29c-12.79,15.14-24.79,30.83-34.62,48.13-5.37,9.44-11.38,18.52-16.86,27.9-2.87,4.9-5.18,10.12-7.82,15.16C646,229.49,642.8,235,640,240.66c-2.59,5.29-5.31,10.61-7,16.2-1.17,3.79-3.6,5-6.68,6.26-6,2.47-7.81,3.76-8,9.73a14.59,14.59,0,0,1-.35,2.8c-.13.53-.54,1.37-.88,1.4-2.68.23-2.83,2.6-3.78,4.27a24.72,24.72,0,0,1-1.52,2.89,2.09,2.09,0,0,1-1.79.71,2.3,2.3,0,0,1-.8-1.8,7.33,7.33,0,0,1,.7-2.05c1.24-3.73,2.71-7.41,3.6-11.23.61-2.61.4-5.41.56-8.13l-.91-.28a16.18,16.18,0,0,1-1.42,1.85,26,26,0,0,1-2.14,1.76,12,12,0,0,1-1-2.8c-.16-1.8,0-3.62,0-5.44a2.54,2.54,0,0,0-2.26-2.75c-3.09-.61-4.74-1.92-4.7-5.61.06-6-.75-11.93-1-17.9-.62-12.82-1.15-25.66-1.71-38.49-.19-4.23-.24-8.46-.52-12.69-.2-3-.57-6-1.06-9a5.7,5.7,0,0,0-5.68-4.84c-.86,0-1.72-.1-2.4-.14-3.42,2.73-4,6.7-5.2,10.43-1.51,4.56-3.47,9-5.42,13.37q-3.86,8.69-8,17.24-5.94,12.06-12.15,24c-1.47,2.81-3.38,5.39-5.12,8.05q-8.1,12.36-16.21,24.71c-7.37,11.26-15,22.29-25.56,30.94-4.46,3.64-8.34,8-12.55,11.92-.5.47-1.4.49-2.1.77a6.29,6.29,0,0,0-1.5.78c-1.92,1.46-3.74,3.05-5.73,4.41a2.77,2.77,0,0,1-2.45.3c-1.06-.77-.46-1.78.31-2.6a15.07,15.07,0,0,0,1-1.33l-.34-.43c-1.12.83-2.24,1.66-3.37,2.48-3.77,2.75-7.5,5.55-11.35,8.17-.68.46-2.32.57-2.77.11-1.08-1.1.25-1.79,1-2.61,2.78-3.16,5.29-6.59,8.26-9.56,7.1-9.33,10.87-16.6,15.14-25.65,31.24-53.92,54.68-107.68,55.94-110.45.77-1.67,2.58-5.14,1-7.35-.1-.13.09-.58.27-.78,5.18-5.85,7.27-13.22,9.88-20.31,1.48-4,2.7-8.16,4-12.26a10.51,10.51,0,0,0,.19-2.52l-.61-.48c-1.52,1.35-3.14,2.6-4.54,4.07-3.18,3.32-6.07,6.94-9.4,10.08-4.95,4.67-11.38,6.73-17.51,9.31-4.1,1.72-8.19,3.47-12.22,5.38a11,11,0,0,0-6.06,6.31c-2.61,7.51-5.48,14.94-7.67,22.57-2.72,9.45-4.92,19.05-7.18,28.63-.44,1.88-2.28,3.44-1.39,5.67a11.74,11.74,0,0,1-1.32.75,7.46,7.46,0,0,1-3.29,7.2c-3.61,2.5-5.95,6-8.3,9.49-1.46,2.19-2.79,4.46-4.27,6.63-3.1,4.55-6.64,8.86-9.34,13.64-10.55,18.66-25,34.1-40.09,49-3.43,3.39-7.17,6.45-10.65,9.79-1.26,1.21-2.08,2.86-3.26,4.18a27.36,27.36,0,0,1-4.6,4.59c-11.64,8-24.4,12.34-38.69,11.56-8.13-.45-15-3.95-21.27-8.84-2.3-1.8-4.39-3.86-6.65-5.71-3.22-2.63-6.35-5.42-9.79-7.72-6.82-4.56-9.72-11.23-10.85-18.92-1.94-13.1.73-25.69,4.58-38.08,2.07-6.68,4.54-13.23,6.87-19.82a15.25,15.25,0,0,1,1.26-2.26l.69.29a24.31,24.31,0,0,1-.67,2.54c-4.43,11.65-8.4,23.46-10.47,35.78-.84,4.94-1.15,10-1.55,15-.07.82.6,1.7.94,2.55l.77-.2c.18-1.91.42-3.83.53-5.75.63-11.17,3.65-21.77,7.51-32.21,1.28-3.47,1.92-7.17,3.2-10.64.85-2.28,1.8-5.19,3.62-6.28,2.9-1.74,3.41-4.44,4.73-6.9q11.19-20.82,22.46-41.58c5.3-9.79,11.93-18.69,18.36-27.73,5-7,9.48-14.21,11.79-22.59a4.81,4.81,0,0,1,1.26-1.73Q408.55,129,414,123.32c.49-.52.95-1.07,1.42-1.61l-.35-.57a9.61,9.61,0,0,0-2.21,1.35q-6.42,6.9-12.73,13.89c-2.09,2.31-4.08,4.71-6.12,7.07l-.65-.33a9.16,9.16,0,0,1,1.06-2.4c5.85-6.91,11.59-13.93,17.7-20.61,7.92-8.68,16.17-17.08,24.23-25.64,1.9-2,3.58-4.25,5.41-6.33,4.48-5.06,10.69-7.33,17.12-2.67a96.18,96.18,0,0,1,12.51,11.2,7.12,7.12,0,0,0,8,1.87c4.37-1.86,7.9-.11,11.26,2.53a85.59,85.59,0,0,1,17.78,19.53,12.42,12.42,0,0,0,9.15,5.74,14.23,14.23,0,0,0,6.63-.67c7.88-3.24,16-6.08,22.81-11.49,9.72-7.74,19.39-15.53,27-25.51,3.32-4.35,7-8.46,10.2-12.87,1.83-2.48,4.07-3.23,7-3.16,10.49.24,18.77,4.77,25.3,12.79,2.76,3.4,5.49,6.83,8.3,10.18a3.62,3.62,0,0,1,.65,4.12,63.31,63.31,0,0,0-2.83,9.82,17,17,0,0,0,.73,8.56c1.39,4.41,2.72,9.11,2.62,13.65.74,35.62.2,56,.26,67.74a8.25,8.25,0,0,0,.8,2.43c.68-.61,1.64-1.09,2-1.85,6.71-13.94,15.29-26.75,24.36-39.2q21.1-28.93,42.77-57.47c3.2-4.23,7.33-7.73,10.89-11.7,2.73-3,5.35-6.2,7.78-9.49A7.28,7.28,0,0,0,716,78.05c-.07-3.27-.59-6.53-.76-9.8,0-.68.53-1.85,1.06-2,3.54-1.06,7.14-1.92,10.73-2.81a1.51,1.51,0,0,1,1,.23c6.38,3.83,12.08,8.28,14.36,15.82a6.91,6.91,0,0,1,.3,2.35c-.19,3.26-.73,6.53-.64,9.78.5,18.59-3,36.56-8.25,54.26-1.62,5.46-3.45,10.85-5.28,16.24-.24.69-1,1.19-1.54,1.79l-.59-.55c.5-.78,1.28-1.51,1.41-2.35s-.49-1.58-.77-2.38c-.5.43-1.28.77-1.46,1.31-6.14,18.4-12,36.91-18.43,55.19-2.92,8.3-7,16.22-10.71,24.2a320,320,0,0,0-18.45,50.54c-.21.76-.26,2,.18,2.38s1.61.26,2.42.13c10.58-1.7,16.74-9.22,22.36-17.28,4.47-6.41,9-12.8,12.88-19.58,6-10.54,11.53-21.31,17-32.15,6.46-12.92,12.82-25.9,18.78-39.06s11.41-26.41,16.84-39.72c1.59-3.88,2.35-8.1,3.52-12.16,1.33-4.62,2.7-9.22,4.06-13.84.59-2,1.32-4,1.75-6.07,1.63-7.84,2.77-15.81,4.85-23.53,1.73-6.41,4.63-12.5,6.8-18.8,1.54-4.47,5-6.54,9-8.33a12.9,12.9,0,0,1,10.64,0,23.22,23.22,0,0,1,12.13,10.9c3.15,6.17,6.11,12.44,9,18.73A13.84,13.84,0,0,1,831.51,97c0,5.88,3.11,11.07,3.51,16.83.15,2.29.08,4.6.17,6.9.18,4.88.4,9.75.59,14.62.09,2.36.7,4.87.11,7-.78,2.79.38,5.23.39,7.85,0,11.83.24,23.67.45,35.5a6.49,6.49,0,0,0,.92,2.16c.64-.46,1.61-.77,1.89-1.39,6-13.58,14.65-25.56,22.42-38.09,13.38-21.58,29-41.53,44.56-61.52,3.75-4.82,8.43-8.91,12.37-13.59,3-3.54,6.05-6.94,10-9.35,3.74-2.3,7.87-3.4,12.31-2.05a5.14,5.14,0,0,0,.61.24c5.86.89,8.19,5.61,10.78,10a6.59,6.59,0,0,1,.44,3c.5,18.36-3,36.12-8.22,53.6-1.63,5.45-3.47,10.84-5.3,16.23-.23.69-1,1.19-1.5,1.78l-.62-.54a12.19,12.19,0,0,0,1.34-2.15,3.46,3.46,0,0,0,0-2,1.8,1.8,0,0,0-1.17-.73,4.47,4.47,0,0,0-1.1,1.65c-5.84,17.57-11.19,35.33-17.6,52.69C913.53,210.09,906.69,224,901,238.38c-4.72,11.85-8.78,24-13.07,36-.9,2.53-.61,3,2,2.69a25.66,25.66,0,0,0,7.84-1.64c13.87-6.32,27.72-12.71,41.44-19.37,16-7.78,31.89-15.88,47.86-23.78,22.18-11,45.1-20.59,65.5-34.87,5.79-4.06,11.15-8.73,16.68-13.14a19.37,19.37,0,0,0,1.85-1.94c-1.67-1.41-3.16-2.49-5.27-2-4.77,1.2-9.34.27-14-1.07-10.67-3.09-21.35-6.11-31.37-11-6.81-3.34-13.13-7.26-18.1-13.19-2.71-3.22-6.1-5.88-8.91-9a59.36,59.36,0,0,1-7.62-9.83c-1.61-2.82-2.28-6.25-3-9.49-.55-2.57-1-3.11-3.64-3.7-1-.23-1.73-1.67-2.79-2.77a12.52,12.52,0,0,0-1,1.42c-1,1.77-1.88,3.64-3,5.33-.39.59-1.4.78-2.13,1.15-.24-.83-.92-1.84-.66-2.46,3-7.13,4.91-13,9.35-21.19,19.18-32.09,76.54-53.7,94.93-60.35,13.16-4.77,26.47-9.16,39.78-13.51a120.16,120.16,0,0,1,15.07-3.85c2.72-.51,5.63,0,8.45.05.15,0,.29,0,.44.05a26.59,26.59,0,0,1,9.5,1.65c2.95,1.23,5.85.31,8.47-1.53a11.93,11.93,0,0,1,3.73-1.76c1.66-.45,3.3-.35,4.48,1.34a3.9,3.9,0,0,0,5.06,1.34c1.75-.7,3-.45,4,1.36a5.79,5.79,0,0,0,2.44,2.05,2,2,0,0,0,1.79-.54c2-2.82,2.09-2.85,4.62-.48a5,5,0,0,0,.9.55l3-3.17.29.31-1.12,3.33,2.23.1c.26,1.44,2.28,2.29,4.54,1.69A14,14,0,0,0,1194,32c.39-.19.9-.72,1.09-.62,2.39,1.36,3.15-.14,3.76-2,0-.07.26-.07.56-.13.09.47,0,1.16.29,1.34a3.75,3.75,0,0,0,2.16.82c.35,0,.74-1.1.89-1.74a6.07,6.07,0,0,0-.1-1.79c.69,0,1.38,0,2.06.08a26.37,26.37,0,0,1,2.78.45c.67.16,1.75.31,1.9.73.75,2.1,2.14,2.08,3.85,1.5a1.11,1.11,0,0,1,.65,0c1.29.33,2.58.68,3.87,1a22.93,22.93,0,0,1-2.82,3.35c-.41.35-1.72.08-2.3-.34a4.25,4.25,0,0,0-4.12-.59,6.58,6.58,0,0,1-3.22.29c-1.81-.42-3.55,0-5.26,0-5.63-.18-10.79,2.08-16.3,2.57-4.65.41-9.15,2.39-13.71,3.69-14.19,4-28.45,7.86-42.53,12.26a183.34,183.34,0,0,0-25.37,9.62C1088.66,69,1075.4,76,1062.51,83.59c-6.87,4-13,9.47-19.08,14.64-7.79,6.6-15.9,12.94-22.18,21.1a39,39,0,0,0-4.62,9c-.77,1.87,1.43,5,3.76,5.72,9.1,2.94,18.2,5.87,27.33,8.71,4.82,1.49,9.64,3,14.56,4.09,5.14,1.15,9.45,3.75,13.71,6.61,6.32,4.26,12.46,8.73,17.24,14.76a20.67,20.67,0,0,1,4.46,10.09,25.59,25.59,0,0,0,1.87,5.35c1.87,4.83,3.69,9.69,5.66,14.48a11.08,11.08,0,0,1-.88,10.5c-4.27,6.84-10,12.17-17.58,15.2-6.64,2.65-13.37,5.12-19.93,8-2.56,1.12-4.64,3.3-7.12,4.67-8.11,4.51-16.28,8.89-24.45,13.27-4,2.14-8,4.33-12.07,6.21-6,2.77-61,24.6-104.14,40.07-10.33,3.15-21,4.38-27.32,4.16-3.16-.21-5.84,0-8.75-.21-1.36-.09-3.08.51-4-1.42-.15-.34-1.33-.3-2-.3-3.34,0-6.62-.17-9.26-2.58-4.33-4-6.67-8.67-5.73-14.76,1.57-10.1,5.23-19.57,8.91-29,9.47-24.26,19.23-48.41,28.84-72.61a553.4,553.4,0,0,0,20.31-62.15c.21-.81.35-1.64.52-2.45l-.53-.31c-2,2.41-4.12,4.81-6.14,7.24a297.43,297.43,0,0,0-30.09,43c-10.06,17.78-20.1,35.55-28.37,54.27-2.23,5.06-5.37,9.7-7.73,14.71a87.15,87.15,0,0,0-4,11.09,3.39,3.39,0,0,1-3.47,2.66c-3,.19-5.94.55-8.91.77a1.77,1.77,0,0,1-1.43-.55c-1.48-2.8-4.16-4.05-6.81-5.25a83.32,83.32,0,0,0-8-3,2.34,2.34,0,0,1-1.89-2.3c-.73-10.85-1.56-21.69-2.25-32.54-.77-12.09-1.43-24.18-2.12-36.28a27.51,27.51,0,0,0-.11-3.28c-.54-3-1.2-6-1.81-9l-1.06-.29a44.65,44.65,0,0,0-3.3,4.27c-2.84,4.76-5.52,9.62-8.33,14.41a19.27,19.27,0,0,1-3.32,4.16c.19-.53.35-1.08.55-1.6q4.35-10.87,8.71-21.74c.16-.41.47-.84.43-1.22a11.84,11.84,0,0,0-.57-2c-.57.35-1.43.57-1.65,1.07-2.32,5.43-4.61,10.89-6.77,16.39-7.73,19.71-16.63,38.89-25.4,58.14a385,385,0,0,1-22.22,42,174.12,174.12,0,0,1-30.38,37.53c-2.15,2-4.19,4.07-6.31,6.08a20.6,20.6,0,0,1-11.75,5.37c-5.41.72-10.82,1.62-16.26,2-2.33.16-4.75-.83-7-1.27l2.64-2.52c.35-.35-.1-.77-1.91-.55-3.32.39-6.66.7-9.95,1.25-2.29.38-4.51,1.18-6.79,1.64a5.82,5.82,0,0,1-2.08-.45c.32-.64.49-1.47,1-1.88,1.18-1,2.58-1.64,3.77-2.59,1-.78,1.16-1.66-.29-2.31a3.55,3.55,0,0,1-2-4,3.77,3.77,0,0,0-2.24-4.09,5.19,5.19,0,0,1-2.75-4.84,28.8,28.8,0,0,1,2.07-11.08c5.34-14.83,10.21-29.84,15.88-44.54,7.41-19.18,15.63-38.06,23.12-57.22a470.82,470.82,0,0,0,16.52-52.34C709.43,133.18,709.52,132.56,709.75,131.39ZM355.46,302.18c0,1.07,0,1.73,0,2.39a14.14,14.14,0,0,0,.18,1.95c.57,3,.58,2.9,3.52,2.23,8.88-2,16.82-6.12,24.35-11.1,13.25-8.74,24.17-20.13,34.56-31.86a377.27,377.27,0,0,0,25.74-33.24c7.07-10.05,13.21-20.77,19.59-31.29,3.21-5.3,6.32-10.7,9-16.29,5.37-11.21,8.8-23.13,11.8-35.15,1.45-5.81,3.56-11.44,2.76-17.76-1-7.94-5.12-14-12.69-16.5-3.11-1-6.22-.89-8.87,1.4-4.63,4-9.4,7.9-13.8,12.16-21.94,21.27-40.42,45.3-56.66,71.11-8.79,14-17.74,27.88-23.74,43.31-4.29,11.05-7.75,22.42-11.34,33.73A105.2,105.2,0,0,0,355.46,302.18Z" />

        <!-- Underline -->
        <path mask="url(#mask-underline)" class="cls-1" d="M355.15,424.61c1.22-2.84,3.31-3.7,5.62-4.22,4.54-1,9.08-2,13.61-3,1-.21,1.88-.62,3.26-1.08-.7-.65-1-1.13-1.47-1.32a6.51,6.51,0,0,0-1.92-.41c-2.8-.34-4.2-1.4-4-3.09s2.71-2.81,5.08-2.15a7.74,7.74,0,0,1,3.54,1.91c3.67,3.91,8.12,5.18,13.09,3.44a5.57,5.57,0,0,0,3.33-8.09c-.95-1.9-.73-3.52,1-4.81.53-.39,1.1-.71,1.63-1.1,2.46-1.8,5-3.49,7.33-5.45,2.71-2.27,4.92-2.64,7.32-.14,3.53,3.67,7.47,3.25,11.48,1.57a51,51,0,0,0,6.93-4.12c1.24-.77,2.37-1.73,3.65-2.4,1.79-.95,3.46-1.16,5.13.6,1.86,2,5.08,1.78,7.15,0a50.42,50.42,0,0,1,4.65-3.62,8.9,8.9,0,0,1,7.91-1.26A15.31,15.31,0,0,0,471.4,385a3.67,3.67,0,0,1,2.31-.48c3,.78,5.62-.47,8.17-1.63a13.21,13.21,0,0,1,10-.81c2.91.93,5.71.1,8.56-.8a63.92,63.92,0,0,1,7.83-1.61c1.64-.31,3.29-.56,4.94-.81L525.5,377c8.19-1.19,16.64-.68,24.6-3.51a4.47,4.47,0,0,1,1.72-.31c8.9.64,17.53-1.58,26.28-2.45,7.19-.71,14.42-1,21.62-1.63,4.27-.39,8.5-1.31,12.77-1.8,7-.79,13.93-1.46,20.9-2.11,11.19-1,22.37-2.12,33.57-3,7.35-.55,14.73-.77,22.09-1,14.67-.49,29.35-.83,44-1.4,5.1-.2,10.2-.75,15.27-1.39,10.12-1.29,15.26,1.89,18.21,11.65,2.23,7.39,1.08,13.79-5.44,18.77a26.25,26.25,0,0,0-5.36,5.72c-4.15,5.81-10,8.26-16.77,8.45-3.67.1-7.37-.61-11-1.09-4-.52-8.07-1.66-12.12-1.72-13-.19-26-.06-39,.08-9.64.1-19.28.38-28.92.62-2.76.07-5.53.33-8.3.42s-5.82-.05-8.72.1c-3.85.19-7.78.15-11.52.93-6.62,1.38-13.16,2.46-20,1.62s-13.5.63-20.24,1.48c-8.38,1.05-16.73,2.43-25.28,2.06-4.09-.18-8.23,1-12.37,1.35-2.81.23-5.78.55-8.47-.08-7.93-1.86-15.64-.8-23.37.9a59.36,59.36,0,0,1-22.85.34,19.31,19.31,0,0,0-9.26.84A75.82,75.82,0,0,1,467,413.48a16.76,16.76,0,0,1-6.25-.43c-10.65-2.44-21.32-3.72-32.06-.79a41.38,41.38,0,0,0-11.26,4.63,20.18,20.18,0,0,1-8.88,2.68c-4,.3-8-.41-12-.52a46.27,46.27,0,0,0-5,.47c-2.3.18-4.73.84-6.88.33-3-.72-5.65,0-8.51.64-5.23,1.14-10.58,1.68-15.86,2.58A45.37,45.37,0,0,0,355.15,424.61Z"/>
    </g>

    <g id="masks">
        <mask id="mask-c">
            <path class="mask" d="M329.59,88.92S106.29,235,45.27,385.33c0,0-33.78,90.45,69.74,74.1S290.46,358.15,290.46,358.15" />
        </mask>

        <mask id="mask-omms">
            <path class="mask" d="M460.46,98.73S362.93,187,343.86,282.35C329.49,354.22,406,303.6,406,303.6s78.46-71.92,94-144.67c0,0,13.35-36.5-17.71-55.3,0,0,0,19.43,27.24,36.14s74.83-46.86,81-52.3,15.25-3.27,13.07,3.63-86.72,178.72-112.6,212c0,0,4.36,2.18,22.34-20.7s65.93-111.7,78.46-145.48,16.89-32.7,18.52-25.61,3.66,119.88.91,135.67c-5.81,33.42,16.71,2.91,32.7-41.41,6.86-19,53.57-85,67.2-98.62S725.27,90.78,728,84.4s1.09,26.86-6.54,50.83S681.14,249.66,673,268.73s-11.91,52.94,28.33,28.88,77.37-135.13,81.19-150.39,13.62-69.2,19.61-67,16.35,22.89,17.44,61,2.86,70.06,3.08,79.91c.49,21.29,17.44,4.36,28.34-20.7s57.39-97.9,66.11-107.16S940,74.75,937.23,91.1s-29.42,108.43-48.49,147.66-16.35,54.49,5.45,49.58,152.79-55.18,179.08-78.46c25.43-22.52,5.08-43.59-8-46.31s-50.11-19.13-64.84-30.52c-22.34-17.25,11.44-38.14,26.15-48.49S1121.94,33,1193.32,25" />
        </mask>

        <mask id="mask-underline">
            <path class="mask" d="M750.07,379.61s-184.72-3.27-385.78,35.14" />
        </mask>
    </g>

</svg>