<svg xmlns="http://www.w3.org/2000/svg" viewBox="0 0 471.33 113.14"><defs><style>.cls-1{fill:none;stroke:#fff;stroke-linecap:round;stroke-linejoin:round;stroke-width:4px;}</style></defs><g id="Layer_2" data-name="Layer 2"><g id="Layer_6" data-name="Layer 6"><path class="cls-1" d="M2,2H52.15q25,0,25,21.08v67q0,21.07-25,21.08H2v-98M31.75,91.59H43.14q4.24,0,4.25-3.74V25.29q0-3.73-4.25-3.74H31.75v59.5"/><path class="cls-1" d="M158.6,111.14H135.19L117.85,72.38H116v38.76H86.23V14.3m0-12.3h50.49q25,0,25,21.08V51.3q0,16.16-14.62,19.89L163.58,104M127.71,23.25H116v28.9h11.73q4.24,0,4.25-3.74V27Q132,23.26,127.71,23.25Z"/><path class="cls-1" d="M171.87,103.41,198.86,2h36.21l28.05,109.14H233.2l-3.4-16.32H203.62l-4.57,16.32H176.58m40.3-76.67-8.67,39.27h17l-4.9-23.1"/><path class="cls-1" d="M296.44,60.89v50.25H269.92v-97M338.39,60.2l-8.12,27.31h-20.4L296.44,42.12m28.33,2.69L337.75,2h32.47V111.14H343.87V41.78M269.92,2h32.47l17.68,58.31"/><path class="cls-1" d="M444.11,13l25.22,98.1H439.41L436,94.82H409.83l-3.57,16.32H383.09M379,103.5,405.07,2h36.21M419,52.85l-4.61,20.89h17l-8.33-39.27"/></g></g></svg>